# xmcd
#
# Track frame offsets:
#	150
#	19143
#	33800
#	49627
#	72026
#	91087
#	107272
#	126371
#	146302
#	166928
#	187456
#	203898
#
# Disc length: 3168 seconds
#
# Revision: 1
# Processed by: cddbd v1.5PL3 Copyright (c) Steve Scherf et al.
# Submitted via: audiograbber 1.83.01
#
DISCID=9a0c5e0c
DTITLE=Larry Schuba - Hitverächtlich
DYEAR=2001
DGENRE=
TTITLE0=Brandenburg Mond
TTITLE1=Das alte Haus am Dorfrand
TTITLE2=Sonntagskinder
TTITLE3=Gäb´s für mich kein Morgen mehr
TTITLE4=Liebe ist ...
TTITLE5=Worte, die ich leider nie gesagt
TTITLE6=Störche
TTITLE7=Ein Land wie dieses
TTITLE8=Wir beide sind uns nie zuvor begegnet
TTITLE9=Das Geschenk
TTITLE10=So soll es sein
TTITLE11=Das Wissen der Bäume
EXTD=
EXTT0=
EXTT1=
EXTT2=
EXTT3=
EXTT4=
EXTT5=
EXTT6=
EXTT7=
EXTT8=
EXTT9=
EXTT10=
EXTT11=
PLAYORDER=
